<svg xmlns="http://www.w3.org/2000/svg">
    <defs>
        <g id="bio">
            <path
                fill-rule="evenodd"
                clip-rule="evenodd"
                d="M6.13574 0.102417V2.12232H20.2482C20.3962 2.12232 20.5162 2.2423 20.5162 2.3903V21.5465H22.5482V0.102417H6.13574Z"
            />

            <path
                fill-rule="evenodd"
                clip-rule="evenodd"
                d="M1 2.65829V24.1024H19.9803V21.8145V2.65829H5.86778H1ZM17.6804 20.0099H3.32535C3.1774 20.0099 3.05736 19.89 3.05736 19.742C3.05736 19.594 3.17734 19.474 3.32535 19.474H17.6804C17.8284 19.474 17.9484 19.594 17.9484 19.742C17.9484 19.89 17.8284 20.0099 17.6804 20.0099ZM17.6804 17.9649H3.32535C3.1774 17.9649 3.05736 17.8449 3.05736 17.6969C3.05736 17.5489 3.17734 17.4289 3.32535 17.4289H17.6804C17.8284 17.4289 17.9484 17.5489 17.9484 17.6969C17.9484 17.8449 17.8284 17.9649 17.6804 17.9649ZM17.6804 15.9201H3.32535C3.1774 15.9201 3.05736 15.8001 3.05736 15.6521C3.05736 15.5041 3.17734 15.3841 3.32535 15.3841H17.6804C17.8284 15.3841 17.9484 15.5041 17.9484 15.6521C17.9484 15.8001 17.8284 15.9201 17.6804 15.9201ZM12.031 7.20513H17.6804C17.8284 7.20513 17.9484 7.32511 17.9484 7.47311C17.9484 7.62112 17.8284 7.7411 17.6804 7.7411H12.031C11.883 7.7411 11.763 7.62117 11.763 7.47311C11.763 7.32511 11.883 7.20513 12.031 7.20513ZM12.031 9.24979H17.6804C17.8284 9.24979 17.9484 9.36977 17.9484 9.51778C17.9484 9.66578 17.8284 9.78576 17.6804 9.78576H12.031C11.883 9.78576 11.763 9.66584 11.763 9.51778C11.763 9.36972 11.883 9.24979 12.031 9.24979ZM12.031 11.2946H17.6804C17.8284 11.2946 17.9484 11.4146 17.9484 11.5626C17.9484 11.7106 17.8284 11.8306 17.6804 11.8306H12.031C11.883 11.8306 11.763 11.7106 11.763 11.5626C11.763 11.4146 11.883 11.2946 12.031 11.2946ZM12.031 13.3393H17.6804C17.8284 13.3393 17.9484 13.4593 17.9484 13.6073C17.9484 13.7553 17.8284 13.8753 17.6804 13.8753H12.031C11.883 13.8753 11.763 13.7553 11.763 13.6073C11.763 13.4593 11.883 13.3393 12.031 13.3393ZM10.2445 11.6026V13.607C10.2445 13.7551 10.1246 13.875 9.97655 13.875H2.78669C2.63874 13.875 2.5187 13.7551 2.5187 13.607V11.6182C2.5187 10.5941 3.35508 9.76094 4.38322 9.76094H8.39557C9.41508 9.76089 10.2445 10.587 10.2445 11.6026ZM8.70331 6.53305C8.70331 7.80824 7.6615 8.84575 6.38099 8.84575C5.10082 8.84575 4.0593 7.80824 4.0593 6.53305C4.0593 5.25791 5.10077 4.22045 6.38099 4.22045C7.6615 4.22045 8.70331 5.25791 8.70331 6.53305Z"
            />

            <path
                fill-rule="evenodd"
                clip-rule="evenodd"
                d="M4.38329 10.2968C3.65071 10.2968 3.05469 10.8896 3.05469 11.6181V13.3391H9.7087V11.6026C9.7087 10.8826 9.11965 10.2968 8.39565 10.2968H4.38329ZM6.89519 12.0735H5.86785V11.0512H6.89519V12.0735Z"
            />

            <path
                fill-rule="evenodd"
                clip-rule="evenodd"
                d="M6.38099 8.30984C7.36606 8.30984 8.16739 7.51275 8.16739 6.53305C8.16739 5.55341 7.366 4.75637 6.38099 4.75637C5.39631 4.75637 4.59521 5.55341 4.59521 6.53305C4.59521 7.5128 5.39637 8.30984 6.38099 8.30984Z"
            />
        </g>

        <g id="birthday-cake">
            <path
                d="M1.03846 18.1486C2.34869 18.1458 2.49699 16.6454 4.51892 16.6411C6.54972 16.6367 6.71168 18.1365 8.01747 18.1337C9.3125 18.131 9.48507 16.6305 11.5096 16.6261C13.5129 16.6219 13.7208 18.1216 14.9965 18.1188C16.3127 18.116 16.4523 16.6156 18.4886 16.6112C20.5249 16.6069 20.6733 18.1067 21.9872 18.1039L21.9792 14.3536C21.9765 13.1113 20.969 12.1055 19.7299 12.1082L18.9817 12.1098L18.9673 5.35922L15.9746 5.36561L15.989 12.1162L12.9963 12.1226L12.9819 5.372L9.98925 5.37839L10.0037 12.129L7.01099 12.1353L6.99658 5.38478L4.00391 5.39117L4.01832 12.1417L3.27015 12.1433C2.031 12.146 1.0278 13.156 1.03045 14.3983L1.03846 18.1486ZM1.05127 24.1491L22 24.1044L21.9904 19.604C19.963 19.6084 19.8003 18.1086 18.4918 18.1114C17.1848 18.1142 17.0336 19.6146 14.9997 19.619C12.9963 19.6232 12.7886 18.1235 11.5128 18.1263C10.1966 18.1291 10.057 19.6295 8.02067 19.6339C5.99327 19.6382 5.83062 18.1384 4.52212 18.1412C3.23677 18.1439 3.06396 19.6444 1.04166 19.6488L1.05127 24.1491ZM17.4693 4.61235C18.2993 4.61058 18.9642 3.94113 18.9625 3.10903C18.9594 1.65578 17.4638 2.03401 17.4597 0.111971C16.8986 0.11317 15.9663 1.4981 15.969 2.74039C15.9716 3.98268 16.6393 4.61412 17.4693 4.61235ZM11.484 4.62513C12.314 4.62336 12.9789 3.95391 12.9771 3.12181C12.974 1.66856 11.4785 2.04679 11.4744 0.124752C10.9133 0.12595 9.98099 1.51088 9.98365 2.75317C9.9863 3.99546 10.654 4.6269 11.484 4.62513ZM5.49864 4.63791C6.32864 4.63614 6.99355 3.96669 6.99177 3.13459C6.98867 1.68134 5.49314 2.05957 5.48903 0.137532C4.92791 0.13873 3.99565 1.52366 3.9983 2.76595C4.00096 4.00824 4.66864 4.63968 5.49864 4.63791Z"
            />
        </g>

        <g id="books">
            <path
                d="M0 1.10242V23.6024H7.5V1.10242H0ZM4.5 21.3524H3C2.58545 21.3524 2.25 21.0166 2.25 20.6024C2.25 20.1882 2.58545 19.8524 3 19.8524H4.5C4.91455 19.8524 5.25 20.1882 5.25 20.6024C5.25 21.0166 4.91455 21.3524 4.5 21.3524ZM4.5 18.8812H3C2.58545 18.8812 2.25 18.5454 2.25 18.1312C2.25 17.717 2.58545 17.3812 3 17.3812H4.5C4.91455 17.3812 5.25 17.717 5.25 18.1312C5.25 18.5454 4.91455 18.8812 4.5 18.8812ZM3.75 6.52147C2.92159 6.52147 2.25 5.84988 2.25 5.02147C2.25 4.19305 2.92159 3.52147 3.75 3.52147C4.57841 3.52147 5.25 4.19305 5.25 5.02147C5.25 5.84988 4.57841 6.52147 3.75 6.52147Z"
            />

            <path
                d="M8.25 1.10242V23.6024H15.75V1.10242H8.25ZM12.75 21.3524H11.25C10.8354 21.3524 10.5 21.0166 10.5 20.6024C10.5 20.1882 10.8354 19.8524 11.25 19.8524H12.75C13.1646 19.8524 13.5 20.1882 13.5 20.6024C13.5 21.0166 13.1646 21.3524 12.75 21.3524ZM12.75 18.8812H11.25C10.8354 18.8812 10.5 18.5454 10.5 18.1312C10.5 17.717 10.8354 17.3812 11.25 17.3812H12.75C13.1646 17.3812 13.5 17.717 13.5 18.1312C13.5 18.5454 13.1646 18.8812 12.75 18.8812ZM12 6.52147C11.1716 6.52147 10.5 5.84988 10.5 5.02147C10.5 4.19305 11.1716 3.52147 12 3.52147C12.8284 3.52147 13.5 4.19305 13.5 5.02147C13.5 5.84988 12.8284 6.52147 12 6.52147Z"
            />

            <path
                d="M16.5 1.10242V23.6024H24V1.10242H16.5ZM21 21.3524H19.5C19.0854 21.3524 18.75 21.0166 18.75 20.6024C18.75 20.1882 19.0854 19.8524 19.5 19.8524H21C21.4146 19.8524 21.75 20.1882 21.75 20.6024C21.75 21.0166 21.4146 21.3524 21 21.3524ZM21 18.8812H19.5C19.0854 18.8812 18.75 18.5454 18.75 18.1312C18.75 17.717 19.0854 17.3812 19.5 17.3812H21C21.4146 17.3812 21.75 17.717 21.75 18.1312C21.75 18.5454 21.4146 18.8812 21 18.8812ZM20.25 6.52147C19.4216 6.52147 18.75 5.84988 18.75 5.02147C18.75 4.19305 19.4216 3.52147 20.25 3.52147C21.0784 3.52147 21.75 4.19305 21.75 5.02147C21.75 5.84988 21.0784 6.52147 20.25 6.52147Z"
            />
        </g>

        <g id="chalkboard">
            <path
                d="M7.80004 15.3024C7.71042 15.3024 7.62079 15.3155 7.53529 15.3433C7.04929 15.5011 6.53817 15.6024 6.00005 15.6024C5.46192 15.6024 4.9508 15.5011 4.46443 15.3433C4.37892 15.3155 4.28968 15.3024 4.20005 15.3024C1.87281 15.3024 -0.0123144 17.1954 6.05803e-05 19.5256C0.00531057 20.5104 0.814933 21.3024 1.80006 21.3024H10.2C11.1852 21.3024 11.9948 20.5104 12 19.5256C12.0124 17.1954 10.1273 15.3024 7.80004 15.3024ZM6.00005 14.1024C7.98829 14.1024 9.60004 12.4906 9.60004 10.5024C9.60004 8.51415 7.98829 6.90241 6.00005 6.90241C4.0118 6.90241 2.40005 8.51415 2.40005 10.5024C2.40005 12.4906 4.0118 14.1024 6.00005 14.1024ZM22.2 2.10242H7.80004C6.80742 2.10242 6.00005 2.93679 6.00005 3.96204V5.70241C6.87829 5.70241 7.69129 5.95666 8.40004 6.36991V4.50241H21.6V15.3024H19.2V12.9024H14.4V15.3024H11.541C12.2573 15.9283 12.783 16.7548 13.0294 17.7024H22.2C23.1926 17.7024 24 16.868 24 15.8428V3.96204C24 2.93679 23.1926 2.10242 22.2 2.10242Z"
            />
        </g>

        <g id="close">
            <path
                d="M24 2.5281L21.5743 0.102386L12 9.67667L2.42571 0.102386L0 2.5281L9.57429 12.1024L0 21.6767L2.42571 24.1024L12 14.5281L21.5743 24.1024L24 21.6767L14.4257 12.1024L24 2.5281Z"
            />
        </g>

        <g id="daynight">
            <path
                d="M5.3106 6.56098C5.48191 6.73229 5.73888 6.81795 5.91019 6.81795C6.0815 6.81795 6.33846 6.73229 6.50977 6.56098C6.85239 6.21836 6.85239 5.70443 6.50977 5.36181L4.71102 3.56306C4.3684 3.22044 3.85447 3.22044 3.51185 3.56306C3.16923 3.90568 3.16923 4.41961 3.51185 4.76223L5.3106 6.56098Z"
            />

            <path
                d="M4.28275 12.0429C4.28275 11.529 3.94013 11.1864 3.4262 11.1864H0.85655C0.34262 11.1864 0 11.529 0 12.0429C0 12.5569 0.34262 12.8995 0.85655 12.8995H3.4262C3.94013 12.8995 4.28275 12.5569 4.28275 12.0429Z"
            />

            <path
                d="M5.3106 17.5248L3.51185 19.3236C3.16923 19.6662 3.16923 20.1802 3.51185 20.5228C3.68316 20.6941 3.94012 20.7797 4.11143 20.7797C4.28274 20.7797 4.53971 20.6941 4.71102 20.5228L6.50977 18.724C6.85239 18.3814 6.85239 17.8675 6.50977 17.5248C6.16715 17.1822 5.65322 17.1822 5.3106 17.5248Z"
            />

            <path
                d="M23.4696 12.2142C23.127 12.0429 22.6987 12.1286 22.4417 12.4712C21.7565 13.3277 20.7286 13.756 19.7008 13.756C17.7307 13.756 16.0176 12.1286 16.0176 10.0728C16.0176 8.70236 16.7885 7.50319 17.9877 6.81795C18.3303 6.64664 18.5016 6.21837 18.4159 5.87575C18.3303 5.53313 17.9877 5.19051 17.5594 5.19051C17.4737 5.19051 17.3024 5.19051 17.2168 5.19051C15.5893 5.19051 14.0475 5.79009 12.8484 6.7323V0.907759C12.8484 0.393828 12.5057 0.0512085 11.9918 0.0512085C11.4779 0.0512085 11.1353 0.393828 11.1353 0.907759V5.27616C7.79471 5.70444 5.1394 8.61671 5.1394 12.0429C5.1394 15.4691 7.79471 18.3814 11.1353 18.8097V23.1781C11.1353 23.692 11.4779 24.0346 11.9918 24.0346C12.5057 24.0346 12.8484 23.692 12.8484 23.1781V17.3535C14.0475 18.3814 15.5893 18.8953 17.2168 18.8953C20.643 18.8953 23.4696 16.4113 23.9835 13.0708C24.0692 12.7281 23.8122 12.2999 23.4696 12.2142ZM12.8484 15.4691C12.8484 15.983 12.5057 16.3257 11.9918 16.3257C11.4779 16.3257 11.1353 15.983 11.1353 15.4691V8.61671C11.1353 8.10278 11.4779 7.76016 11.9918 7.76016C12.5057 7.76016 12.8484 8.10278 12.8484 8.61671V15.4691Z"
            />
        </g>

        <g id="delete">
            <path
                d="M22.9626 4.22503H16.4171V3.18155C16.4171 2.35131 16.0723 1.55507 15.4585 0.968C14.8448 0.38093 14.0124 0.0511169 13.1444 0.0511169L10.9626 0.0511169C10.0946 0.0511169 9.26215 0.38093 8.64839 0.968C8.03463 1.55507 7.68983 2.35131 7.68983 3.18155V4.22503H1.14438C0.855049 4.22503 0.577572 4.33497 0.372987 4.53066C0.168401 4.72635 0.0534668 4.99176 0.0534668 5.26851C0.0534668 5.54526 0.168401 5.81067 0.372987 6.00636C0.577572 6.20205 0.855049 6.31199 1.14438 6.31199H3.32619V20.9207C3.32619 21.7509 3.671 22.5472 4.28475 23.1342C4.89851 23.7213 5.73094 24.0511 6.59892 24.0511H17.508C18.376 24.0511 19.2084 23.7213 19.8222 23.1342C20.4359 22.5472 20.7807 21.7509 20.7807 20.9207V6.31199H22.9626C23.2519 6.31199 23.5294 6.20205 23.7339 6.00636C23.9385 5.81067 24.0535 5.54526 24.0535 5.26851C24.0535 4.99176 23.9385 4.72635 23.7339 4.53066C23.5294 4.33497 23.2519 4.22503 22.9626 4.22503ZM9.87165 3.18155C9.87165 2.9048 9.98658 2.63939 10.1912 2.4437C10.3958 2.24801 10.6732 2.13807 10.9626 2.13807H13.1444C13.4337 2.13807 13.7112 2.24801 13.9158 2.4437C14.1204 2.63939 14.2353 2.9048 14.2353 3.18155V4.22503H9.87165V3.18155ZM8.78074 18.8337C8.78074 19.1105 8.6658 19.3759 8.46122 19.5716C8.25663 19.7673 7.97916 19.8772 7.68983 19.8772C7.4005 19.8772 7.12303 19.7673 6.91844 19.5716C6.71386 19.3759 6.59892 19.1105 6.59892 18.8337V10.4859C6.59892 10.2092 6.71386 9.94374 6.91844 9.74805C7.12303 9.55236 7.4005 9.44242 7.68983 9.44242C7.97916 9.44242 8.25663 9.55236 8.46122 9.74805C8.6658 9.94374 8.78074 10.2092 8.78074 10.4859V18.8337ZM13.1444 18.8337C13.1444 19.1105 13.0294 19.3759 12.8249 19.5716C12.6203 19.7673 12.3428 19.8772 12.0535 19.8772C11.7641 19.8772 11.4867 19.7673 11.2821 19.5716C11.0775 19.3759 10.9626 19.1105 10.9626 18.8337V10.4859C10.9626 10.2092 11.0775 9.94374 11.2821 9.74805C11.4867 9.55236 11.7641 9.44242 12.0535 9.44242C12.3428 9.44242 12.6203 9.55236 12.8249 9.74805C13.0294 9.94374 13.1444 10.2092 13.1444 10.4859V18.8337ZM17.508 18.8337C17.508 19.1105 17.3931 19.3759 17.1885 19.5716C16.9839 19.7673 16.7064 19.8772 16.4171 19.8772C16.1278 19.8772 15.8503 19.7673 15.6457 19.5716C15.4411 19.3759 15.3262 19.1105 15.3262 18.8337V10.4859C15.3262 10.2092 15.4411 9.94374 15.6457 9.74805C15.8503 9.55236 16.1278 9.44242 16.4171 9.44242C16.7064 9.44242 16.9839 9.55236 17.1885 9.74805C17.3931 9.94374 17.508 10.2092 17.508 10.4859V18.8337Z"
            />
        </g>

        <g id="down">
            <path
                d="M24.415 7.51739L21.585 4.68739L12.415 13.8574L3.24504 4.68739L0.415039 7.51739L12.415 19.5174L24.415 7.51739Z"
            />
        </g>

        <g id="edit">
            <path
                d="M0.996826 19.0505V24.0511H5.99752L20.7529 9.29577L15.7522 4.29507L0.996826 19.0505ZM24.6068 5.4419C25.1268 4.92182 25.1268 4.07504 24.6068 3.55497L21.493 0.441202C20.9729 -0.0788706 20.1262 -0.0788706 19.6061 0.441202L17.1657 2.88154L22.1664 7.88224L24.6068 5.4419Z"
            />
        </g>

        <g id="exit">
            <path
                fill-rule="evenodd"
                clip-rule="evenodd"
                d="M9.46667 16.9024L11.3333 18.7691L18 12.1024L11.3333 5.43572L9.46667 7.30239L12.9333 10.7691H0V13.4357H12.9333L9.46667 16.9024ZM21.3333 0.102386H2.66667C1.2 0.102386 0 1.30239 0 2.76905V8.10239H2.66667V2.76905H21.3333V21.4357H2.66667V16.1024H0V21.4357C0 22.9024 1.2 24.1024 2.66667 24.1024H21.3333C22.8 24.1024 24 22.9024 24 21.4357V2.76905C24 1.30239 22.8 0.102386 21.3333 0.102386Z"
            />
        </g>

        <g id="gender">
            <path
                d="M3.08307 0.14107L6.72614 0.133291C7.01339 0.132678 7.28912 0.247982 7.49268 0.453838C7.69623 0.659694 7.81094 0.939239 7.81156 1.23098C7.81219 1.52271 7.69867 1.80275 7.496 2.00947C7.29332 2.21619 7.01809 2.33267 6.73084 2.33329L5.70241 2.33548L7.53282 4.18608C8.25999 3.32033 9.16309 2.62473 10.1801 2.14708C11.197 1.66943 12.3038 1.42104 13.4243 1.41899C17.7133 1.40983 21.2103 4.94638 21.2196 9.30237C21.2281 13.2854 18.3177 16.5946 14.5409 17.1396L14.5449 19.0166L15.9234 19.0137C16.2106 19.0131 16.4864 19.1284 16.6899 19.3342C16.8935 19.5401 17.0082 19.8196 17.0088 20.1114C17.0094 20.4031 16.8959 20.6832 16.6933 20.8899C16.4906 21.0966 16.2153 21.2131 15.9281 21.2137L14.5496 21.2166L14.5535 23.0166C14.5541 23.3084 14.4406 23.5884 14.2379 23.7951C14.0352 24.0018 13.76 24.1183 13.4728 24.1189C13.1855 24.1196 12.9098 24.0043 12.7062 23.7984C12.5027 23.5925 12.388 23.313 12.3873 23.0213L12.3835 21.2213L11.005 21.2242C10.7178 21.2248 10.442 21.1095 10.2385 20.9037C10.0349 20.6978 9.92023 20.4183 9.9196 20.1265C9.91898 19.8348 10.0325 19.5548 10.2352 19.348C10.4378 19.1413 10.7131 19.0248 11.0003 19.0242L12.3788 19.0213L12.3748 17.1443C8.59567 16.6153 5.67121 13.3186 5.66271 9.33558C5.65976 8.21607 5.89238 7.10887 6.34501 6.08812L4.17416 3.89275L4.17639 4.93875C4.17702 5.23048 4.0635 5.51052 3.86083 5.71724C3.65815 5.92396 3.38292 6.04044 3.09567 6.04106C2.80842 6.04167 2.53269 5.92637 2.32913 5.72051C2.12558 5.51465 2.01087 5.23511 2.01024 4.94337L2.00234 1.24338C2.00172 0.951643 2.11523 0.67161 2.31791 0.464887C2.52059 0.258164 2.79582 0.141683 3.08307 0.14107ZM13.4533 15.019C14.5633 15.0166 15.6477 14.68 16.5693 14.0517C17.4909 13.4234 18.2083 12.5316 18.6309 11.4892C19.0535 10.4468 19.1621 9.30044 18.9432 8.19521C18.7243 7.08998 18.1876 6.07548 17.401 5.28C16.6144 4.48452 15.6133 3.94378 14.5241 3.72617C13.435 3.50856 12.3068 3.62385 11.2822 4.05746C10.2576 4.49107 9.38262 5.22352 8.76794 6.1622C8.15325 7.10087 7.82645 8.20361 7.82886 9.33096C7.83378 10.8422 8.42871 12.2897 9.48313 13.356C10.5376 14.4224 11.9654 15.0204 13.4533 15.019Z"
            />
        </g>

        <g id="hierarchy">
            <path
                d="M4.8 15.3024H1.2C0.53925 15.3024 0 15.8417 0 16.5024V20.1024C0 20.7632 0.53925 21.3024 1.2 21.3024H4.8C5.46075 21.3024 6 20.7632 6 20.1024V16.5024C6 15.8424 5.46 15.3024 4.8 15.3024ZM3.9 12.3024H11.1V14.1024H12.9V12.3024H20.1V14.1024H21.9V11.9424C21.9 11.1512 21.255 10.5024 20.46 10.5024H12.9V8.10242H14.4C15.0608 8.10242 15.6 7.56317 15.6 6.90242V3.30242C15.6 2.64167 15.0608 2.10242 14.4 2.10242H9.6C8.94 2.10242 8.4 2.64167 8.4 3.30242V6.90242C8.4 7.56317 8.93925 8.10242 9.6 8.10242H11.1V10.5024H3.53925C2.74688 10.5024 2.1 11.1512 2.1 11.9424V14.1024H3.9V12.3024ZM13.8 15.3024H10.2C9.53925 15.3024 9 15.8417 9 16.5024V20.1024C9 20.7632 9.53925 21.3024 10.2 21.3024H13.8C14.4608 21.3024 15 20.7632 15 20.1024V16.5024C15 15.8424 14.46 15.3024 13.8 15.3024ZM22.8 15.3024H19.2C18.5393 15.3024 18 15.8417 18 16.5024V20.1024C18 20.7632 18.5393 21.3024 19.2 21.3024H22.8C23.4608 21.3024 24 20.7632 24 20.1024V16.5024C24 15.8424 23.46 15.3024 22.8 15.3024Z"
            />
        </g>

        <g id="mail">
            <path
                d="M12 16.6024C11.2252 16.6024 10.4503 16.3482 9.78938 15.8332L0 8.22114V18.8524C0 20.0946 1.00734 21.1024 2.25 21.1024H21.75C22.9927 21.1024 24 20.095 24 18.8524V8.22114L14.2125 15.8383C13.5516 16.3493 12.7734 16.6024 12 16.6024ZM0.763594 6.91332L10.7105 14.6524C11.4694 15.243 12.5325 15.243 13.2914 14.6524L23.2383 6.91332C23.6766 6.53832 24 5.96176 24 5.35239C24 4.10973 22.9922 3.10239 21.75 3.10239H2.25C1.00734 3.10239 0 4.10973 0 5.35239C0 5.96176 0.281719 6.53832 0.763594 6.91332Z"
            />
        </g>

        <g id="microscope">
            <path
                d="M7.5 15.1024H8.0625V15.8524C8.0625 16.2684 8.39648 16.6024 8.8125 16.6024H10.6875C11.1035 16.6024 11.4375 16.2684 11.4375 15.8524V15.1024H12C12.8259 15.1024 13.5 14.4284 13.5 13.6024V3.10242C13.5 2.27648 12.8259 1.60242 12 1.60242V0.852417C12 0.436401 11.6672 0.102417 11.25 0.102417H8.25C7.83281 0.102417 7.5 0.436401 7.5 0.852417V1.60242C6.675 1.60242 6 2.27648 6 3.10242V13.6024C6 14.4274 6.675 15.1024 7.5 15.1024ZM21.75 21.1024H21.6914C23.1187 19.5087 24 17.4087 24 15.1024C24 10.1384 19.9627 6.10242 15 6.10242V9.10242C18.3108 9.10242 21 11.7921 21 15.1024C21 18.4127 18.3103 21.1024 15 21.1024H2.25C1.00781 21.1024 0 22.1102 0 23.3524C0 23.7696 0.333984 24.1024 0.75 24.1024H23.25C23.666 24.1024 24 23.7684 24 23.3524C24 22.1102 22.9922 21.1024 21.75 21.1024ZM4.875 19.6024H14.625C14.8301 19.6024 15 19.4325 15 19.2274V18.4774C15 18.2723 14.8301 18.1024 14.625 18.1024H4.875C4.67016 18.1024 4.5 18.2712 4.5 18.4774V19.2274C4.5 19.4337 4.67016 19.6024 4.875 19.6024Z"
            />
        </g>

        <g id="next">
            <path
                d="M7.83 0.102386L5 2.93239L14.17 12.1024L5 21.2724L7.83 24.1024L19.83 12.1024L7.83 0.102386Z"
            />
        </g>

        <g id="people">
            <path
                d="M9 9.10242C9 7.40242 10.3 6.10242 12 6.10242C13.7 6.10242 15 7.40242 15 9.10242C15 10.8024 13.7 12.1024 12 12.1024C10.3 12.1024 9 10.8024 9 9.10242ZM12 14.1024C7.4 14.1024 6 17.4024 6 17.4024V19.1024H18V17.4024C18 17.4024 16.6 14.1024 12 14.1024Z"
            />

            <path
                d="M18.5 11.1024C19.8807 11.1024 21 9.98313 21 8.60242C21 7.22171 19.8807 6.10242 18.5 6.10242C17.1193 6.10242 16 7.22171 16 8.60242C16 9.98313 17.1193 11.1024 18.5 11.1024Z"
            />

            <path
                d="M18.5 13.1024C17.3 13.1024 16.4 13.4024 15.7 13.9024C18 15.0024 18.9 16.9024 18.9 17.1024V17.2024H23V15.9024C23 15.8024 21.9 13.1024 18.5 13.1024Z"
            />

            <path
                d="M18.5 11.1024C19.8807 11.1024 21 9.98313 21 8.60242C21 7.22171 19.8807 6.10242 18.5 6.10242C17.1193 6.10242 16 7.22171 16 8.60242C16 9.98313 17.1193 11.1024 18.5 11.1024Z"
            />

            <path
                d="M18.5 13.1024C17.3 13.1024 16.4 13.4024 15.7 13.9024C18 15.0024 18.9 16.9024 18.9 17.1024V17.2024H23V15.9024C23 15.8024 21.9 13.1024 18.5 13.1024Z"
            />

            <path
                d="M5.5 11.1024C6.88071 11.1024 8 9.98313 8 8.60242C8 7.22171 6.88071 6.10242 5.5 6.10242C4.11929 6.10242 3 7.22171 3 8.60242C3 9.98313 4.11929 11.1024 5.5 11.1024Z"
            />

            <path
                d="M5.5 13.1024C6.7 13.1024 7.6 13.4024 8.3 13.9024C6 15.0024 5.1 16.9024 5.1 17.1024V17.2024H1V15.9024C1 15.8024 2.1 13.1024 5.5 13.1024Z"
            />
        </g>

        <g id="phone">
            <path
                d="M22.8925 17.4812C21.8971 16.4628 19.0699 14.557 17.2196 14.561C16.791 14.5619 16.417 14.6579 16.1113 14.8559C15.2078 15.4361 14.4877 15.8867 14.1407 15.8875C13.9502 15.8879 13.7458 15.7182 13.296 15.3314L13.221 15.2635C11.9738 14.1844 11.7079 13.906 11.2238 13.4035L11.1011 13.2745C11.0125 13.1863 10.9375 13.1048 10.8625 13.0301C10.4398 12.5956 10.133 12.2833 9.04874 11.0609L9.001 11.0066C8.48274 10.4226 8.14179 10.0423 8.12079 9.76339C8.0998 9.49129 8.33695 9.04854 8.94064 8.22401C9.67321 7.22911 9.69781 6.00439 9.0213 4.58387C8.48149 3.46241 7.60164 2.38931 6.8241 1.44526L6.7559 1.36376C6.08749 0.548742 5.3111 0.142178 4.44715 0.144023C3.48796 0.146071 2.69314 0.664848 2.27195 0.937895C2.23798 0.958378 2.20403 0.985666 2.17006 1.00615C1.22575 1.60689 0.540431 2.4316 0.283713 3.269C-0.101357 4.5285 -0.356375 6.16193 1.50803 9.55299C3.11975 12.4887 4.57976 14.4587 6.89776 16.8282C9.07941 19.0552 10.0469 19.7743 12.2136 21.3345C14.6255 23.0711 16.9405 24.0663 18.5596 24.0629C20.063 24.0597 21.2467 24.0571 22.9294 22.0192C24.6936 19.8791 23.9561 18.5744 22.8925 17.4812Z"
            />
        </g>

        <g id="plus" clip-path="url(#clip0_79_825)">
            <path
                d="M24 10.1024H14V0.102417H10V10.1024H0V14.1024H10V24.1024H14V14.1024H24V10.1024Z"
            />
        </g>

        <g id="previous">
            <path
                d="M17.0001 0.102386L19.8301 2.93239L10.6601 12.1024L19.8301 21.2724L17.0001 24.1024L5.00008 12.1024L17.0001 0.102386Z"
            />
        </g>

        <g id="profile">
            <path
                d="M7.57344 12.1555C3.14271 13.9215 1.17638e-06 18.2455 5.81637e-06 23.2993C-0.000396754 23.4048 0.0201019 23.5095 0.0603201 23.6071C0.100538 23.7047 0.159681 23.7934 0.234338 23.8681C0.308995 23.9427 0.397691 24.0019 0.495312 24.0421C0.592934 24.0823 0.69755 24.1028 0.80313 24.1024H23.2031C23.4153 24.1015 23.6184 24.0165 23.7679 23.8658C23.9173 23.7152 24.0008 23.5114 24 23.2993C24 18.2461 20.8581 13.9218 16.4281 12.1555C15.2031 13.1162 13.6662 13.6961 12 13.6961C10.3335 13.6961 8.79739 13.1165 7.57344 12.1555Z"
            />

            <path
                d="M12 0.102386C8.4749 0.102386 5.60474 2.97258 5.60474 6.4977C5.60474 10.0228 8.4749 12.8993 12 12.8993C15.5252 12.8993 18.4016 10.0228 18.4016 6.4977C18.4016 2.97258 15.5252 0.102386 12 0.102386Z"
            />
        </g>

        <g id="reload">
            <path
                d="M1.00367 16.3191L0.999756 16.3199C1.00122 16.3228 1.0022 16.3253 1.00367 16.3287C1.00562 16.3534 1.01002 16.3764 1.01345 16.4003C1.01394 16.4045 1.01345 16.4074 1.01394 16.4113L1.97455 22.6493C2.09093 23.4067 2.79946 23.9258 3.55641 23.8089C4.31385 23.6926 4.83315 22.9845 4.71677 22.2268L4.56739 21.2574C4.74147 21.4009 4.91701 21.5432 5.09916 21.6765C7.57 23.4906 10.7496 24.3627 14.0197 23.8588C17.2891 23.3561 20.0592 21.5679 21.8701 19.0944C22.7654 17.8749 23.4234 16.4795 23.807 14.9886L20.0225 13.9466C19.7672 14.9713 19.3179 15.9292 18.701 16.771C17.4756 18.4394 15.6287 19.6347 13.4217 19.975C11.2146 20.3144 9.09294 19.7301 7.42281 18.5071C7.2172 18.3565 7.02062 18.1937 6.83016 18.024L7.92745 18.1303C8.62963 18.1978 9.25871 17.6353 9.33279 16.8727C9.40614 16.1099 8.89686 15.4368 8.19468 15.3691L2.41023 14.8089C1.78238 14.7483 1.21613 15.1933 1.04988 15.8329C1.03765 15.8781 1.0313 15.9243 1.02323 15.971C1.01809 16.0033 1.00831 16.0333 1.00514 16.0663C1.00416 16.0764 1.00562 16.0852 1.00489 16.0942C1.00171 16.1368 1.00391 16.18 1.0044 16.2233C1.00416 16.2556 1.00147 16.2881 1.00367 16.3191Z"
            />

            <path
                d="M23.8031 7.68076L23.8067 7.68027C23.8053 7.67709 23.8043 7.6744 23.8028 7.67122C23.8009 7.64677 23.7962 7.62355 23.793 7.59958C23.7926 7.59592 23.793 7.59249 23.7926 7.58883L22.8322 1.35109C22.7156 0.593901 22.0075 0.0745989 21.2498 0.191222C20.4926 0.307845 19.9733 1.01589 20.09 1.77309L20.2396 2.74299C20.0648 2.59947 19.8892 2.45718 19.7073 2.32368C17.2365 0.509795 14.0566 -0.363043 10.7873 0.141345C7.51743 0.643777 4.74758 2.43248 2.93687 4.90577C2.04105 6.12554 1.38312 7.52086 1 9.01177L4.7845 10.0533C5.03926 9.02889 5.48912 8.07097 6.10549 7.22918C7.33089 5.56076 9.17851 4.36568 11.3853 4.02511C13.5923 3.68624 15.7136 4.27009 17.3842 5.49255C17.5898 5.64365 17.7864 5.80648 17.9766 5.97567L16.8795 5.86956C16.1774 5.80159 15.5483 6.3649 15.4744 7.12723C15.4004 7.8898 15.9101 8.56313 16.6121 8.63085L22.3965 9.19099C23.0244 9.25162 23.5906 8.80664 23.7569 8.16705C23.7691 8.12207 23.7754 8.07561 23.783 8.02891C23.7884 7.99664 23.7984 7.96657 23.8014 7.93332C23.8028 7.92403 23.8006 7.91498 23.8014 7.90593C23.8048 7.86315 23.8031 7.81963 23.8021 7.77635C23.8023 7.74457 23.8048 7.71205 23.8031 7.68076Z"
            />
        </g>

        <g id="up">
            <path
                d="M0.415039 16.6874L3.24504 19.5174L12.415 10.3474L21.585 19.5174L24.415 16.6874L12.415 4.68739L0.415039 16.6874Z"
            />
        </g>

        <g id="sort">
            <path
                d="M0 20H8V17.3333H0V20ZM0 4V6.66667H24V4H0ZM0 13.3333H16V10.6667H0V13.3333Z"
            />
        </g>

        <g id="filter">
            <path
                d="M23.8403 1.27042C23.5566 0.550417 22.9558 0.102417 22.2727 0.102417H1.72749C1.04442 0.102417 0.44363 0.550417 0.159089 1.27042C-0.12288 1.98442 -0.0251767 2.80042 0.413633 3.39842L0.414491 3.39942L8.5719 14.4734V23.1024C8.5719 23.4714 8.74588 23.8104 9.02442 23.9844C9.15127 24.0634 9.29011 24.1024 9.42895 24.1024C9.59522 24.1024 9.76063 24.0454 9.90461 23.9344L15.0469 19.9344C15.2852 19.7484 15.4283 19.4364 15.4283 19.1024V14.4734L23.5866 3.39942C24.0254 2.80042 24.1231 1.98442 23.8403 1.27042Z"
            />
        </g>

        <g id="arrow-up">
            <path
                d="M3.61599 7.45227L10.5151 0.613636C10.8961 0.204545 11.4152 0 11.9869 0C12.5585 0 13.071 0.204545 13.4587 0.613636L20.384 7.45227C21.2053 8.26364 21.2053 9.58636 20.384 10.3977C19.5627 11.2091 18.2354 11.2091 17.4141 10.3977L14.1026 7.11818V21.9136C14.1026 23.0659 13.163 24 12 24C10.837 24 9.89743 23.0659 9.89743 21.9136V7.11818L6.58587 10.4045C5.76456 11.2159 4.43731 11.2159 3.61599 10.4045C2.79467 9.58636 2.79467 8.27046 3.61599 7.45227Z"
            />
        </g>

        <g id="arrow-down">
            <path
                d="M20.384 16.5477L13.4849 23.3864C13.1039 23.7955 12.5848 24 12.0131 24C11.4415 24 10.929 23.7955 10.5413 23.3864L3.61599 16.5477C2.79467 15.7364 2.79467 14.4136 3.61599 13.6023C4.43731 12.7909 5.76456 12.7909 6.58587 13.6023L9.89743 16.8818L9.89743 2.08636C9.89743 0.934091 10.837 -7.15256e-07 12 -7.15256e-07C13.163 -7.15256e-07 14.1026 0.934091 14.1026 2.08636L14.1026 16.8818L17.4141 13.5955C18.2354 12.7841 19.5627 12.7841 20.384 13.5955C21.2053 14.4136 21.2053 15.7295 20.384 16.5477Z"
            />
        </g>
    </defs>
</svg>
