<svg width="17" height="17" viewBox="0 0 17 17" fill="none" xmlns="http://www.w3.org/2000/svg">
<path d="M4.45324 5.03296C4.56745 5.14717 4.73876 5.20427 4.85297 5.20427C4.96717 5.20427 5.13848 5.14717 5.25269 5.03296C5.4811 4.80455 5.4811 4.46193 5.25269 4.23352L4.05352 3.03435C3.82511 2.80593 3.48249 2.80593 3.25407 3.03435C3.02566 3.26276 3.02566 3.60538 3.25407 3.83379L4.45324 5.03296Z" fill="#ABB2BF"/>
<path d="M3.76801 8.68749C3.76801 8.34487 3.5396 8.11646 3.19698 8.11646H1.48388C1.14126 8.11646 0.912842 8.34487 0.912842 8.68749C0.912842 9.03011 1.14126 9.25852 1.48388 9.25852H3.19698C3.5396 9.25852 3.76801 9.03011 3.76801 8.68749Z" fill="#ABB2BF"/>
<path d="M4.45324 12.3422L3.25407 13.5414C3.02566 13.7698 3.02566 14.1124 3.25407 14.3408C3.36828 14.455 3.53959 14.5121 3.6538 14.5121C3.768 14.5121 3.93931 14.455 4.05352 14.3408L5.25269 13.1417C5.4811 12.9132 5.4811 12.5706 5.25269 12.3422C5.02428 12.1138 4.68166 12.1138 4.45324 12.3422Z" fill="#ABB2BF"/>
<path d="M16.5592 8.80179C16.3308 8.68758 16.0453 8.74468 15.874 8.9731C15.4172 9.54413 14.7319 9.82965 14.0467 9.82965C12.7333 9.82965 11.5912 8.74468 11.5912 7.3742C11.5912 6.46055 12.1052 5.6611 12.9046 5.20428C13.133 5.09007 13.2472 4.80455 13.1901 4.57614C13.133 4.34773 12.9046 4.11931 12.6191 4.11931C12.562 4.11931 12.4478 4.11931 12.3907 4.11931C11.3057 4.11931 10.2779 4.51904 9.47841 5.14717V1.26415C9.47841 0.921529 9.25 0.693115 8.90738 0.693115C8.56476 0.693115 8.33634 0.921529 8.33634 1.26415V4.17642C6.10931 4.46193 4.33911 6.40345 4.33911 8.68758C4.33911 10.9717 6.10931 12.9132 8.33634 13.1987V16.111C8.33634 16.4536 8.56476 16.682 8.90738 16.682C9.25 16.682 9.47841 16.4536 9.47841 16.111V12.228C10.2779 12.9132 11.3057 13.2558 12.3907 13.2558C14.6748 13.2558 16.5592 11.5999 16.9018 9.37282C16.9589 9.14441 16.7876 8.85889 16.5592 8.80179ZM9.47841 10.9717C9.47841 11.3143 9.25 11.5427 8.90738 11.5427C8.56476 11.5427 8.33634 11.3143 8.33634 10.9717V6.40345C8.33634 6.06083 8.56476 5.83241 8.90738 5.83241C9.25 5.83241 9.47841 6.06083 9.47841 6.40345V10.9717Z" fill="#ABB2BF"/>
</svg>
